<?xml version="1.0" encoding="UTF-8"?>
<mxfile host="app.diagrams.net" modified="2025-08-29T00:00:00.000Z" agent="5.0 (X11)" etag="" version="20.8.3" type="device">
  <diagram id="airbnb_erd" name="Page-1">
    <mxGraphModel dx="1226" dy="711" grid="1" gridSize="10" guides="1" tooltips="1" connect="1" arrows="1" fold="1" page="1" pageScale="1" pageWidth="827" pageHeight="1169" math="0" shadow="0">
      <root>
        <mxCell id="0"/>
        <mxCell id="1" parent="0"/>

        <!-- User Entity -->
        <mxCell id="user" value="&lt;b&gt;User&lt;/b&gt;&lt;br/&gt;PK: user_id (UUID)&lt;br/&gt;first_name&lt;br/&gt;last_name&lt;br/&gt;email (UNIQUE)&lt;br/&gt;password_hash&lt;br/&gt;phone_number&lt;br/&gt;role&lt;br/&gt;created_at" style="rounded=1;whiteSpace=wrap;html=1;fillColor=#ffffff;strokeColor=#000000;" vertex="1" parent="1">
          <mxGeometry x="40" y="40" width="200" height="200" as="geometry"/>
        </mxCell>

        <!-- Property Entity -->
        <mxCell id="property" value="&lt;b&gt;Property&lt;/b&gt;&lt;br/&gt;PK: property_id (UUID)&lt;br/&gt;FK: host_id (User.user_id)&lt;br/&gt;name&lt;br/&gt;description&lt;br/&gt;location&lt;br/&gt;price_per_night&lt;br/&gt;created_at" style="rounded=1;whiteSpace=wrap;html=1;fillColor=#ffffff;strokeColor=#000000;" vertex="1" parent="1">
          <mxGeometry x="320" y="40" width="220" height="200" as="geometry"/>
        </mxCell>

        <!-- Booking Entity -->
        <mxCell id="booking" value="&lt;b&gt;Booking&lt;/b&gt;&lt;br/&gt;PK: booking_id (UUID)&lt;br/&gt;FK: property_id (Property)&lt;br/&gt;FK: guest_id (User)&lt;br/&gt;start_date&lt;br/&gt;end_date&lt;br/&gt;total_price&lt;br/&gt;status" style="rounded=1;whiteSpace=wrap;html=1;fillColor=#ffffff;strokeColor=#000000;" vertex="1" parent="1">
          <mxGeometry x="320" y="280" width="220" height="200" as="geometry"/>
        </mxCell>

        <!-- Payment Entity -->
        <mxCell id="payment" value="&lt;b&gt;Payment&lt;/b&gt;&lt;br/&gt;PK: payment_id (UUID)&lt;br/&gt;FK: booking_id (Booking.booking_id)&lt;br/&gt;amount&lt;br/&gt;payment_date&lt;br/&gt;payment_method&lt;br/&gt;status" style="rounded=1;whiteSpace=wrap;html=1;fillColor=#ffffff;strokeColor=#000000;" vertex="1" parent="1">
          <mxGeometry x="620" y="280" width="220" height="180" as="geometry"/>
        </mxCell>

        <!-- Review Entity -->
        <mxCell id="review" value="&lt;b&gt;Review&lt;/b&gt;&lt;br/&gt;PK: review_id (UUID)&lt;br/&gt;FK: property_id (Property)&lt;br/&gt;FK: user_id (User)&lt;br/&gt;rating (1-5)&lt;br/&gt;comment&lt;br/&gt;created_at" style="rounded=1;whiteSpace=wrap;html=1;fillColor=#ffffff;strokeColor=#000000;" vertex="1" parent="1">
          <mxGeometry x="40" y="280" width="240" height="180" as="geometry"/>
        </mxCell>

        <!-- Message Entity -->
        <mxCell id="message" value="&lt;b&gt;Message&lt;/b&gt;&lt;br/&gt;PK: message_id (UUID)&lt;br/&gt;FK: sender_id (User)&lt;br/&gt;FK: recipient_id (User)&lt;br/&gt;message_body&lt;br/&gt;sent_at" style="rounded=1;whiteSpace=wrap;html=1;fillColor=#ffffff;strokeColor=#000000;" vertex="1" parent="1">
          <mxGeometry x="620" y="40" width="240" height="200" as="geometry"/>
        </mxCell>

        <!-- Edges / Relationships -->
        <!-- User (host) 1--N Property -->
        <mxCell id="e1" style="edgeStyle=orthogonalEdgeStyle;rounded=0;html=1;strokeColor=#000000;endArrow=none;" edge="1" parent="1" source="user" target="property">
          <mxGeometry relative="1" as="geometry"/>
        </mxCell>

        <!-- User (guest) 1--N Booking -->
        <mxCell id="e2" style="edgeStyle=orthogonalEdgeStyle;rounded=0;html=1;strokeColor=#000000;endArrow=none;" edge="1" parent="1" source="user" target="booking">
          <mxGeometry relative="1" as="geometry"/>
        </mxCell>

        <!-- Property 1--N Booking -->
        <mxCell id="e3" style="edgeStyle=orthogonalEdgeStyle;rounded=0;html=1;strokeColor=#000000;endArrow=none;" edge="1" parent="1" source="property" target="booking">
          <mxGeometry relative="1" as="geometry"/>
        </mxCell>

        <!-- Booking 1--1 Payment -->
        <mxCell id="e4" style="edgeStyle=orthogonalEdgeStyle;rounded=0;html=1;strokeColor=#000000;endArrow=none;" edge="1" parent="1" source="booking" target="payment">
          <mxGeometry relative="1" as="geometry"/>
        </mxCell>

        <!-- Property 1--N Review -->
        <mxCell id="e5" style="edgeStyle=orthogonalEdgeStyle;rounded=0;html=1;strokeColor=#000000;endArrow=none;" edge="1" parent="1" source="property" target="review">
          <mxGeometry relative="1" as="geometry"/>
        </mxCell>

        <!-- User 1--N Review -->
        <mxCell id="e6" style="edgeStyle=orthogonalEdgeStyle;rounded=0;html=1;strokeColor=#000000;endArrow=none;" edge="1" parent="1" source="user" target="review">
          <mxGeometry relative="1" as="geometry"/>
        </mxCell>

        <!-- User 1--N Message (sender/recipient) -->
        <mxCell id="e7" style="edgeStyle=orthogonalEdgeStyle;rounded=0;html=1;strokeColor=#000000;endArrow=none;" edge="1" parent="1" source="user" target="message">
          <mxGeometry relative="1" as="geometry"/>
        </mxCell>

      </root>
    </mxGraphModel>
  </diagram>
</mxfile>

